<svg width="25" height="24" viewBox="0 0 25 24" fill="none" xmlns="http://www.w3.org/2000/svg">
<path fill-rule="evenodd" clip-rule="evenodd" d="M15.038 3.34352C15.5469 3.25644 16.1169 3.22736 16.6533 3.31801C17.6112 3.47989 18.496 3.92462 19.1954 4.59138C19.6526 4.60171 20.1019 4.51173 20.4995 4.38347C20.836 4.27492 21.1202 4.14385 21.3194 4.04021C21.4184 3.98868 21.4949 3.94472 21.5447 3.91496C21.5695 3.90011 21.5875 3.88886 21.5983 3.88207L21.6078 3.87601C21.9049 3.67828 22.3006 3.71677 22.5537 3.96827C22.807 4.21984 22.8477 4.61476 22.6513 4.91266C22.4433 5.22795 22.1547 5.79002 21.8312 6.41978C21.7804 6.5188 21.7287 6.61949 21.6763 6.72116C21.4908 7.08113 21.3006 7.44494 21.1233 7.75707C21.012 7.95306 20.8929 8.15204 20.7729 8.32398V8.59775C20.7805 9.60338 20.665 10.6038 20.4307 11.577C20.2833 12.1893 20.0888 12.7909 19.8483 13.3763C19.2252 14.893 18.3057 16.2704 17.1437 17.4282C15.9817 18.5859 14.6004 19.5008 13.0805 20.1193C11.5619 20.7373 9.93533 21.0471 8.29567 21.0306C5.91873 21.0327 3.59179 20.3486 1.59486 19.0607C1.30073 18.871 1.17689 18.5035 1.29636 18.1747C1.41583 17.846 1.74689 17.6434 2.09435 17.6863C2.39504 17.7235 2.69779 17.7416 3.00077 17.7407C4.08943 17.7376 5.15735 17.4973 6.13229 17.0447C5.82239 16.9038 5.52653 16.73 5.25007 16.5253C4.43746 15.9234 3.83288 15.0834 3.52047 14.1223C3.43928 13.8725 3.49478 13.5985 3.66679 13.3999C3.66987 13.3964 3.67298 13.3929 3.67612 13.3894C3.49238 13.2257 3.32047 13.0475 3.16219 12.8559C2.45009 11.9937 2.05798 10.9123 2.05219 9.79453L2.05217 9.79065L2.05218 9.74065C2.05218 9.47478 2.19309 9.22879 2.42255 9.09407C2.48071 9.05992 2.54236 9.03421 2.60579 9.01697C2.26708 8.34189 2.09094 7.59644 2.09223 6.84018C2.09183 5.98342 2.31587 5.14145 2.7421 4.39795C2.86515 4.18331 3.08622 4.04307 3.33303 4.0231C3.57983 4.00312 3.82062 4.10598 3.97666 4.29802C4.94028 5.48403 6.1429 6.45429 7.50639 7.14576C8.2073 7.50121 8.94267 7.77891 9.6993 7.97534C10.1235 8.08547 10.5544 8.17006 10.9896 8.22849C10.9705 7.50523 11.1135 6.78236 11.4135 6.11443C11.8537 5.1346 12.607 4.32843 13.5553 3.82233C13.9569 3.60801 14.49 3.43729 15.038 3.34352ZM3.74733 10.891C3.87712 11.2559 4.0702 11.5982 4.32054 11.9013C4.8124 12.4969 5.4951 12.9044 6.25316 13.0551C6.59082 13.1222 6.83953 13.41 6.85658 13.7535C6.87362 14.097 6.65463 14.408 6.32527 14.5082C6.05247 14.5911 5.77298 14.6489 5.49031 14.681C5.6771 14.9215 5.89683 15.1369 6.14451 15.3204C6.70631 15.7365 7.38401 15.9673 8.08329 15.9808C8.40056 15.9869 8.67973 16.1916 8.78067 16.4921C8.88161 16.7926 8.78252 17.124 8.53313 17.3201C7.4828 18.1456 6.26826 18.7213 4.98128 19.0151C6.04795 19.3564 7.16663 19.532 8.29818 19.5306L8.30689 19.5306C9.74854 19.5456 11.1787 19.2735 12.5139 18.7302C13.8491 18.1868 15.0625 17.3832 16.0833 16.3661C17.104 15.3491 17.9117 14.1391 18.459 12.8068C18.6703 12.2926 18.8412 11.7641 18.9707 11.2262C19.1767 10.3704 19.2782 9.49078 19.2713 8.60651L19.2712 8.60065V8.07065C19.2712 7.88879 19.3374 7.71314 19.4574 7.57636C19.5267 7.49732 19.648 7.31476 19.8172 7.01686C19.978 6.73374 20.156 6.39383 20.3411 6.03465C20.3523 6.01293 20.3636 5.99109 20.3748 5.96915C19.8947 6.0733 19.3506 6.12789 18.7801 6.06631C18.5994 6.0468 18.432 5.96252 18.3088 5.82908C17.8054 5.28374 17.135 4.92073 16.4028 4.79699C16.0779 4.74209 15.6851 4.75465 15.2915 4.82199C14.8639 4.89515 14.4918 5.02317 14.2629 5.14534C13.6079 5.49491 13.0876 6.05175 12.7836 6.72854C12.4795 7.40533 12.409 8.16377 12.583 8.88493C12.6384 9.11484 12.5821 9.35742 12.4309 9.53945C12.2798 9.72148 12.0515 9.82164 11.8151 9.80969C10.9707 9.76703 10.1353 9.63838 9.32156 9.42711C8.46071 9.20362 7.62406 8.88767 6.8266 8.48326C5.65252 7.88785 4.58328 7.11075 3.65742 6.18306C3.61518 6.39868 3.59374 6.6187 3.59389 6.84015L3.59389 6.84207C3.59284 7.39279 3.72814 7.93522 3.98774 8.42107C4.24733 8.90692 4.62317 9.32111 5.08179 9.62676C5.36012 9.81226 5.48198 10.1593 5.38062 10.4779C5.27925 10.7964 4.97912 11.0095 4.64465 11.0004C4.34172 10.9921 4.04133 10.9553 3.74733 10.891Z" fill="black"/>
</svg>
