<svg width="14" height="14" viewBox="0 0 14 14" fill="none" xmlns="http://www.w3.org/2000/svg">
<g clip-path="url(#clip0_0_299)">
<path d="M11.5108 4.49535C11.3656 4.44856 11.2151 4.40429 11.0601 4.36242C11.0856 4.26514 11.109 4.16911 11.1298 4.07472C11.4709 2.52475 11.2479 1.27609 10.4862 0.864976C9.75583 0.470773 8.5614 0.881793 7.35508 1.8644C7.23908 1.95888 7.12276 2.05892 7.00648 2.16376C6.929 2.0944 6.85165 2.02736 6.7745 1.96324C5.51024 0.912581 4.24302 0.469817 3.4821 0.882119C2.75244 1.27747 2.53636 2.45133 2.84345 3.92024C2.8731 4.06212 2.90777 4.20701 2.94697 4.35433C2.76762 4.40198 2.59448 4.45278 2.42881 4.50682C0.946604 4.9905 0 5.74854 0 6.53482C0 7.3469 1.01618 8.16143 2.56001 8.65532C2.68185 8.6943 2.80826 8.73115 2.93854 8.76613C2.89626 8.92546 2.85947 9.0816 2.8286 9.23388C2.53579 10.6773 2.76445 11.8234 3.49216 12.2163C4.24382 12.622 5.50531 12.205 6.73368 11.2C6.83077 11.1205 6.92821 11.0363 7.02582 10.948C7.15233 11.062 7.27865 11.1699 7.4043 11.2712C8.59412 12.2295 9.76926 12.6165 10.4963 12.2225C11.2472 11.8156 11.4912 10.5844 11.1744 9.08645C11.1502 8.97204 11.1221 8.85516 11.0904 8.73621C11.179 8.7117 11.266 8.68639 11.3508 8.66008C12.9558 8.16236 14 7.35775 14 6.53482C14 5.74569 13.0229 4.98255 11.5108 4.49535ZM11.1627 8.12873C11.0862 8.15245 11.0076 8.17538 10.9276 8.19761C10.7504 7.6726 10.5113 7.11433 10.2186 6.53755C10.4979 5.9745 10.7278 5.42337 10.9 4.90177C11.0432 4.94056 11.1822 4.98147 11.3161 5.02465C12.6117 5.44208 13.4019 6.05926 13.4019 6.53482C13.4019 7.04138 12.5485 7.69896 11.1627 8.12873ZM10.5877 9.19516C10.7278 9.85755 10.7478 10.4564 10.655 10.9246C10.5716 11.3453 10.4039 11.6257 10.1966 11.7381C9.75541 11.9771 8.81189 11.6664 7.79434 10.8468C7.67769 10.7529 7.5602 10.6526 7.44233 10.5464C7.83681 10.1426 8.23106 9.67312 8.61585 9.15175C9.29265 9.09554 9.93207 9.00364 10.5119 8.87818C10.5405 8.98601 10.5659 9.09176 10.5877 9.19516ZM4.77292 11.6968C4.34185 11.8392 3.99853 11.8433 3.791 11.7313C3.3494 11.4929 3.16581 10.5727 3.41623 9.33828C3.44491 9.19691 3.47905 9.05169 3.5184 8.90326C4.09191 9.02195 4.72664 9.10737 5.40506 9.15884C5.79244 9.66902 6.19808 10.1379 6.60686 10.5485C6.51755 10.6293 6.42859 10.7061 6.34012 10.7785C5.79695 11.2229 5.25262 11.5382 4.77292 11.6968ZM2.75344 8.12563C2.07079 7.90724 1.50703 7.62341 1.12059 7.31369C0.773361 7.03536 0.598051 6.75904 0.598051 6.53482C0.598051 6.05768 1.35808 5.44908 2.62568 5.03542C2.77948 4.98523 2.94049 4.93793 3.10758 4.89349C3.28276 5.42687 3.51257 5.98453 3.7899 6.54844C3.50898 7.12073 3.27591 7.68727 3.099 8.2269C2.97989 8.19485 2.86448 8.16113 2.75344 8.12563ZM3.43039 3.81274C3.16728 2.55421 3.34202 1.60482 3.78173 1.36659C4.2501 1.1128 5.28579 1.47465 6.37738 2.38184C6.44715 2.43983 6.5172 2.50052 6.58745 2.56331C6.18069 2.97211 5.77875 3.43752 5.39481 3.94469C4.73638 4.00181 4.10611 4.09356 3.52663 4.21644C3.49019 4.07927 3.45792 3.9445 3.43039 3.81274ZM9.46935 5.20844C9.33082 4.98448 9.18861 4.76582 9.04362 4.55312C9.49031 4.60597 9.91828 4.67613 10.3202 4.76199C10.1995 5.12394 10.0491 5.50237 9.87211 5.89033C9.74512 5.66466 9.6108 5.43713 9.46935 5.20844ZM7.00668 2.96337C7.28254 3.24309 7.5588 3.5554 7.83053 3.89426C7.55671 3.88215 7.2795 3.87586 7 3.87586C6.72314 3.87586 6.44798 3.88201 6.17585 3.89391C6.44785 3.5582 6.7265 3.24631 7.00668 2.96337ZM4.52823 5.21231C4.38985 5.4369 4.25802 5.66319 4.13303 5.8899C3.95886 5.50331 3.80987 5.12314 3.68816 4.75607C4.0876 4.6724 4.51355 4.60399 4.9574 4.55214C4.81037 4.7668 4.66698 4.98707 4.52823 5.21227V5.21231ZM4.97018 8.55743C4.51161 8.50954 4.07925 8.44466 3.67991 8.3633C3.80356 7.98967 3.95585 7.60139 4.1337 7.20647C4.25902 7.43301 4.39137 7.6594 4.5306 7.88448H4.53062C4.67244 8.11378 4.81937 8.33839 4.97018 8.55743ZM7.02323 10.1457C6.73976 9.85948 6.45702 9.54283 6.18089 9.20223C6.44895 9.21207 6.72224 9.21711 7 9.21711C7.28536 9.21711 7.56745 9.21109 7.84511 9.19952C7.57248 9.54626 7.29722 9.8634 7.02323 10.1457ZM9.87781 7.18634C10.0649 7.58553 10.2227 7.97178 10.3479 8.33904C9.94201 8.42572 9.50374 8.49553 9.04198 8.5474C9.18731 8.33184 9.33078 8.10942 9.47175 7.88063C9.61436 7.64916 9.74978 7.41734 9.87781 7.18634ZM8.95369 7.60097C8.73484 7.95613 8.51017 8.29517 8.28207 8.6152C7.86664 8.64301 7.43744 8.65733 7 8.65733C6.56433 8.65733 6.14054 8.64466 5.73245 8.61987C5.49517 8.29564 5.26561 7.95559 5.04816 7.60403H5.04821C4.83133 7.25342 4.63172 6.89984 4.45085 6.54825C4.63167 6.19585 4.83076 5.84188 5.04639 5.4919L5.04634 5.49197C5.26254 5.14106 5.49008 4.80267 5.72518 4.48047C6.14154 4.45101 6.56849 4.43564 6.99998 4.43564H7C7.43343 4.43564 7.86093 4.45113 8.27717 4.48084C8.50867 4.80069 8.73467 5.13798 8.95172 5.48894C9.17124 5.84384 9.37289 6.19545 9.55525 6.5403C9.37344 6.89107 9.17223 7.24623 8.95369 7.60097ZM10.1874 1.34993C10.6563 1.60298 10.8386 2.62351 10.544 3.96174C10.5252 4.04713 10.5041 4.1341 10.4811 4.22224C9.90027 4.09681 9.26955 4.00346 8.6092 3.94548C8.22451 3.43274 7.82587 2.96661 7.42573 2.56305C7.53331 2.46619 7.64074 2.37382 7.74772 2.28666C8.78129 1.44477 9.74731 1.11238 10.1874 1.34993ZM7 5.36471C7.69043 5.36471 8.25015 5.88858 8.25015 6.53482C8.25015 7.18104 7.69043 7.70493 7 7.70493C6.30957 7.70493 5.74985 7.18104 5.74985 6.53482C5.74985 5.88858 6.30957 5.36471 7 5.36471Z" fill="#00D8FF"/>
</g>
<defs>
<clipPath id="clip0_0_299">
<rect width="14" height="13.1036" fill="white"/>
</clipPath>
</defs>
</svg>
