<svg width="25" height="24" viewBox="0 0 25 24" fill="none" xmlns="http://www.w3.org/2000/svg">
<path d="M16.0178 7.00005C16.0178 6.44776 16.466 6.00005 17.0189 6.00005C17.5718 6.00005 18.02 6.44776 18.02 7.00005C18.02 7.55233 17.5718 8.00005 17.0189 8.00005C16.466 8.00005 16.0178 7.55233 16.0178 7.00005Z" fill="black"/>
<path fill-rule="evenodd" clip-rule="evenodd" d="M12.0133 7.25005C9.38707 7.25005 7.25806 9.37669 7.25806 12C7.25806 14.6234 9.38707 16.75 12.0133 16.75C14.6396 16.75 16.7686 14.6234 16.7686 12C16.7686 9.37669 14.6396 7.25005 12.0133 7.25005ZM8.75973 12C8.75973 10.2051 10.2164 8.75005 12.0133 8.75005C13.8102 8.75005 15.2669 10.2051 15.2669 12C15.2669 13.795 13.8102 15.25 12.0133 15.25C10.2164 15.25 8.75973 13.795 8.75973 12Z" fill="black"/>
<path fill-rule="evenodd" clip-rule="evenodd" d="M17.2774 2.83306C13.807 2.44562 10.2197 2.44562 6.74927 2.83306C4.73499 3.05794 3.10885 4.64295 2.87204 6.66548C2.45704 10.2098 2.45704 13.7903 2.87204 17.3346C3.10885 19.3571 4.73499 20.9422 6.74927 21.167C10.2197 21.5545 13.807 21.5545 17.2774 21.167C19.2917 20.9422 20.9178 19.3571 21.1546 17.3346C21.5696 13.7903 21.5696 10.2098 21.1546 6.66548C20.9178 4.64295 19.2917 3.05794 17.2774 2.83306ZM6.91607 4.32378C10.2756 3.94871 13.751 3.94871 17.1106 4.32378C18.4422 4.47244 19.5089 5.52205 19.6631 6.83973C20.0646 10.2683 20.0646 13.7318 19.6631 17.1604C19.5089 18.478 18.4422 19.5277 17.1106 19.6763C13.751 20.0514 10.2756 20.0514 6.91607 19.6763C5.58449 19.5277 4.51782 18.478 4.36353 17.1604C3.96209 13.7318 3.96209 10.2683 4.36353 6.83973C4.51782 5.52205 5.58449 4.47244 6.91607 4.32378Z" fill="black"/>
</svg>
